<svg width="400" height="400" viewBox="0 0 400 400" fill="none" xmlns="http://www.w3.org/2000/svg">
<rect width="400" height="400" fill="#FFFFFF"/>
<path d="M227.5 61.5C187 56 146 69 116.5 96.5C86.5 124 70 164.5 72 206.5C74 248.5 92.5 287.5 123.5 313.5C155 340 198 352 240 347.5C279.5 343.5 316 323.5 338.5 292.5C361.5 261 369 221.5 360 184.5C350.5 145.5 325 110.5 289.5 89C272 78.5 251.5 69.5 227.5 61.5ZM220 82.5C248 88.5 272 101.5 291 121.5C310 141.5 321.5 165.5 324.5 191.5C327.5 217.5 322.5 244 310 266C297 288.5 277.5 305.5 255 315.5C232 326 206.5 328.5 181.5 323.5C155.5 318.5 132.5 305 115.5 284.5C98 263.5 89.5 237 90.5 209.5C91.5 181.5 102.5 153 121 132C139.5 111 165.5 94.5 193 85.5C202.5 82.5 211.5 81.5 220 82.5Z" fill="#111111" fill-rule="evenodd"/>
<path d="M229 60C266.5 73 298.5 97.5 319 128.5C339 158.5 348 194.5 345 229.5C342 264.5 327 298 302 323C277 348 243 362 208 364C169 366.5 129 355.5 98.5 332C69 309 49.5 274.5 45.5 236C41 196 53 155.5 78.5 124.5C104 93.5 141 72.5 180.5 66.5C199 63.5 214.5 63.5 229 60Z" fill="#FFFFFF" opacity="0.9"/>
<path d="M253.5 90.5C269.5 97 283.5 106.5 295.5 119.5C307.5 132.5 316 147.5 321.5 164.5C327 181.5 328.5 198.5 326.5 216.5C324.5 234.5 319 251.5 310 266.5C301 282 289 294.5 274.5 303.5" stroke="#FFFFFF" stroke-width="10" stroke-linecap="round" opacity="0.9"/>
<path d="M139.5 300C125 289 113 274 105 257C97 240 93 221.5 93.5 203C94 184 98.5 166 106.5 149.5C114.5 133 126 119 140.5 107.5" stroke="#FFFFFF" stroke-width="8" stroke-linecap="round" opacity="0.9"/>
</svg>
